<svg version="1.1" id="Layer_1" xmlns="http://www.w3.org/2000/svg" xmlns:xlink="http://www.w3.org/1999/xlink" x="0px" y="0px"
	 width="100%" viewBox="0 0 500 500" enable-background="new 0 0 500 500" xml:space="preserve">
<path fill="#231F20" opacity="1.000000" stroke="none" 
	d="
M237.000000,501.000000 
	C158.000015,501.000000 79.500038,501.000000 1.000042,501.000000 
	C1.000028,334.333405 1.000028,167.666779 1.000014,1.000132 
	C167.666565,1.000088 334.333130,1.000088 500.999756,1.000044 
	C500.999847,167.666519 500.999847,334.333038 500.999939,500.999786 
	C413.166656,501.000000 325.333344,501.000000 237.000000,501.000000 
M363.616455,347.131683 
	C390.164825,337.734161 402.875671,316.591949 410.317383,290.977509 
	C410.768921,291.148956 411.220490,291.320435 411.672028,291.491882 
	C410.707550,309.863007 409.743073,328.234100 408.773682,346.698914 
	C412.937561,346.698914 417.348236,346.698914 420.586731,346.698914 
	C419.815399,316.704987 419.051208,286.988525 418.274719,256.794220 
	C425.513367,256.794220 431.598145,256.794220 437.955475,256.794220 
	C437.872681,254.934448 437.810608,253.540070 437.754730,252.285156 
	C403.539978,252.285156 369.711334,252.285156 335.228790,252.285156 
	C339.912720,258.753296 344.175446,264.639740 348.644012,270.810486 
	C368.061188,259.208771 388.941284,255.622925 411.129364,257.221466 
	C410.056458,273.868011 407.245789,289.654388 400.138977,304.465057 
	C386.110229,333.701294 356.562469,346.477875 326.364044,335.862000 
	C307.929047,329.381439 296.882660,315.233948 290.046631,297.684113 
	C279.517456,270.653137 278.925568,242.777512 284.629150,214.656525 
	C288.022308,197.927002 294.304993,182.487900 307.071350,170.439041 
	C323.250580,155.169113 354.578430,150.903442 370.810730,178.637955 
	C374.139740,184.325882 376.684296,190.563889 378.879761,196.798615 
	C381.060944,202.992767 382.346436,209.502304 384.109833,216.196701 
	C396.566864,212.705246 408.756378,209.288773 421.194977,205.802490 
	C403.573242,173.082001 377.551086,154.355011 340.347382,153.469482 
	C315.319855,152.873749 292.198578,159.199936 272.342865,175.096420 
	C251.537720,191.753021 240.845871,213.917770 238.681015,240.122803 
	C236.343033,268.423767 241.832138,295.016144 259.930664,317.632629 
	C283.967590,347.669830 324.384674,359.031219 363.616455,347.131683 
M170.914093,323.374512 
	C170.674774,310.880737 170.860062,298.360199 170.074371,285.900879 
	C169.317993,273.906281 172.150192,263.267548 177.493515,252.493698 
	C192.979950,221.268097 207.619751,189.622589 222.536819,158.257431 
	C218.273270,157.085739 214.826080,157.939529 213.673767,163.857895 
	C213.051117,167.055893 211.395996,170.092468 209.967453,173.087753 
	C197.158051,199.945724 184.299698,226.780365 171.427155,253.608139 
	C171.052353,254.389267 170.362244,255.019104 169.544235,256.074036 
	C152.979614,223.306992 136.655350,191.015442 120.161705,158.388824 
	C104.828056,158.388824 88.451233,158.388824 72.321747,158.388824 
	C76.917694,165.836288 81.911667,172.893799 85.851257,180.497574 
	C100.384109,208.547318 114.586212,236.768616 128.838821,264.962769 
	C129.707901,266.681946 130.417816,268.731354 130.390671,270.615417 
	C130.097824,290.934967 129.695267,311.253448 129.193329,331.569061 
	C129.068237,336.632172 128.478592,341.683807 128.111160,346.623901 
	C143.325394,346.623901 158.038223,346.623901 172.683411,346.623901 
	C172.085709,338.945160 171.517166,331.640869 170.914093,323.374512 
z"/>
<path fill="#F8F7F6" opacity="1.000000" stroke="none" 
	d="
M363.243500,347.260468 
	C324.384674,359.031219 283.967590,347.669830 259.930664,317.632629 
	C241.832138,295.016144 236.343033,268.423767 238.681015,240.122803 
	C240.845871,213.917770 251.537720,191.753021 272.342865,175.096420 
	C292.198578,159.199936 315.319855,152.873749 340.347382,153.469482 
	C377.551086,154.355011 403.573242,173.082001 421.194977,205.802490 
	C408.756378,209.288773 396.566864,212.705246 384.109833,216.196701 
	C382.346436,209.502304 381.060944,202.992767 378.879761,196.798615 
	C376.684296,190.563889 374.139740,184.325882 370.810730,178.637955 
	C354.578430,150.903442 323.250580,155.169113 307.071350,170.439041 
	C294.304993,182.487900 288.022308,197.927002 284.629150,214.656525 
	C278.925568,242.777512 279.517456,270.653137 290.046631,297.684113 
	C296.882660,315.233948 307.929047,329.381439 326.364044,335.862000 
	C356.562469,346.477875 386.110229,333.701294 400.138977,304.465057 
	C407.245789,289.654388 410.056458,273.868011 411.129364,257.221466 
	C388.941284,255.622925 368.061188,259.208771 348.644012,270.810486 
	C344.175446,264.639740 339.912720,258.753296 335.228790,252.285156 
	C369.711334,252.285156 403.539978,252.285156 437.754730,252.285156 
	C437.810608,253.540070 437.872681,254.934448 437.955475,256.794220 
	C431.598145,256.794220 425.513367,256.794220 418.274719,256.794220 
	C419.051208,286.988525 419.815399,316.704987 420.586731,346.698914 
	C417.348236,346.698914 412.937561,346.698914 408.773682,346.698914 
	C409.743073,328.234100 410.707550,309.863007 411.672028,291.491882 
	C411.220490,291.320435 410.768921,291.148956 410.317383,290.977509 
	C402.875671,316.591949 390.164825,337.734161 363.243500,347.260468 
z"/>
<path fill="#F9F8F7" opacity="1.000000" stroke="none" 
	d="
M170.931366,323.855530 
	C171.517166,331.640869 172.085709,338.945160 172.683411,346.623901 
	C158.038223,346.623901 143.325394,346.623901 128.111160,346.623901 
	C128.478592,341.683807 129.068237,336.632172 129.193329,331.569061 
	C129.695267,311.253448 130.097824,290.934967 130.390671,270.615417 
	C130.417816,268.731354 129.707901,266.681946 128.838821,264.962769 
	C114.586212,236.768616 100.384109,208.547318 85.851257,180.497574 
	C81.911667,172.893799 76.917694,165.836288 72.321747,158.388824 
	C88.451233,158.388824 104.828056,158.388824 120.161705,158.388824 
	C136.655350,191.015442 152.979614,223.306992 169.544235,256.074036 
	C170.362244,255.019104 171.052353,254.389267 171.427155,253.608139 
	C184.299698,226.780365 197.158051,199.945724 209.967453,173.087753 
	C211.395996,170.092468 213.051117,167.055893 213.673767,163.857895 
	C214.826080,157.939529 218.273270,157.085739 222.536819,158.257431 
	C207.619751,189.622589 192.979950,221.268097 177.493515,252.493698 
	C172.150192,263.267548 169.317993,273.906281 170.074371,285.900879 
	C170.860062,298.360199 170.674774,310.880737 170.931366,323.855530 
z"/>
</svg>