<svg version="1.1" id="Layer_1" xmlns="http://www.w3.org/2000/svg" xmlns:xlink="http://www.w3.org/1999/xlink" x="0px" y="0px"
	 width="100%" viewBox="0 0 496 496" enable-background="new 0 0 496 496" xml:space="preserve">
<path fill="#000000" opacity="1.000000" stroke="none" 
	d="
M381.841431,350.110718 
	C356.082245,354.844696 330.691559,356.622986 306.063385,347.241119 
	C266.701691,332.246704 244.428268,303.156158 238.718643,261.669250 
	C234.823975,233.370087 240.288589,206.794571 257.529175,183.600693 
	C275.262360,159.744156 299.901917,148.256424 329.239044,146.783127 
	C348.361359,145.822815 367.165497,147.839325 384.972778,155.622787 
	C386.954407,156.488937 388.884583,157.472153 390.847656,158.381561 
	C406.784882,165.764679 414.125336,178.529266 414.280792,195.795441 
	C414.315277,199.627136 414.390717,203.459061 414.369385,207.290436 
	C414.356659,209.573700 414.808075,212.209854 411.196167,212.300644 
	C407.998749,212.380997 404.753906,212.861969 403.959198,208.350266 
	C403.148163,203.746094 401.431519,199.393951 399.741211,195.045761 
	C391.471954,173.773376 375.262146,163.336731 353.156616,161.422073 
	C343.196014,160.559357 333.210510,160.791245 323.474213,163.889786 
	C306.409668,169.320526 296.183807,181.658539 289.286438,197.374878 
	C283.466278,210.636719 280.598541,224.576950 280.180237,239.035461 
	C279.580994,259.747833 280.323029,280.298706 287.139832,300.177399 
	C295.896820,325.714050 316.511658,340.553528 343.384094,340.786865 
	C355.317535,340.890442 366.926971,339.309753 378.265778,335.530426 
	C382.098633,334.252930 383.773163,332.244446 383.709259,327.929291 
	C383.469971,311.772614 383.551422,295.609253 383.677246,279.449707 
	C383.777527,266.568695 391.710175,255.093155 403.672180,250.366928 
	C414.532440,246.076004 425.999969,245.328384 437.502045,244.899353 
	C439.836395,244.812286 441.436493,245.582657 441.299500,248.280151 
	C441.187531,250.484344 441.910309,252.661209 438.415161,253.559769 
	C428.606323,256.081421 424.424225,261.773590 423.265411,272.071747 
	C422.274109,280.880615 422.392670,289.692474 422.384308,298.515259 
	C422.374512,308.844696 422.273224,319.176086 422.453430,329.502411 
	C422.510406,332.768250 421.338440,334.707214 418.545563,336.277679 
	C407.130951,342.696228 395.012604,347.186981 381.841431,350.110718 
z"/>
<path fill="#000000" opacity="1.000000" stroke="none" 
	d="
M172.158936,316.000000 
	C172.159927,327.994751 172.030060,339.491730 172.229980,350.983002 
	C172.301743,355.108063 170.873886,356.532349 166.743195,356.440948 
	C156.586121,356.216278 146.412918,356.129242 136.262100,356.466156 
	C131.263687,356.632080 129.601715,355.105164 129.649521,349.994873 
	C129.873947,326.007996 129.684219,302.017517 129.794052,278.029053 
	C129.811646,274.186523 128.839294,271.000671 126.694328,267.804108 
	C109.617493,242.355576 92.663597,216.824478 75.694107,191.304016 
	C70.231117,183.088196 64.008690,175.504715 56.956059,168.611771 
	C50.701107,162.498459 43.904747,157.178574 35.246346,154.887833 
	C32.430786,154.142944 31.558121,152.422470 31.836584,149.723969 
	C32.090450,147.263824 33.787178,146.846786 35.744957,146.852676 
	C47.071117,146.886734 58.415134,146.570755 69.719032,147.100403 
	C86.368019,147.880554 98.810669,156.984360 109.115898,169.128448 
	C121.434059,183.644653 130.680374,200.352997 141.417847,216.001205 
	C147.992233,225.582352 154.332794,235.323929 160.761108,244.967590 
	C163.082123,244.033493 163.637863,242.164352 164.559891,240.670135 
	C182.926270,210.906265 201.307007,181.150940 219.529785,151.299240 
	C221.513046,148.050339 223.713547,146.478821 227.532608,146.781540 
	C232.468216,147.172791 237.471420,146.384338 242.294403,147.253433 
	C243.408630,149.667389 241.710159,150.964706 240.815628,152.420822 
	C219.108597,187.755615 197.402039,223.090836 175.584152,258.357147 
	C173.220688,262.177460 172.011536,265.967651 172.077698,270.521912 
	C172.295441,285.511841 172.158829,300.506897 172.158936,316.000000 
z"/>
</svg>